:version 1.10
:name ASF
:units
  mass 1
  length 1
  angle deg
:documentation
  ASF file generated by Kaydara
:root
  axis xyz
  order  tx ty tz rx ry rz
  position 0 0 0
  orientation 0 0 0
:bonedata
  begin
    id 1
    name LeftUpLegDummy
    direction 1 -2.30186e-007 -8.31532e-007
    length 2.93387
    axis 0 0 0 xyz
  end
  begin
    id 2
    name LeftUpLeg
    direction -1.82929e-007 -1 -1.48925e-009
    length 17.3336
    axis -3.48766 0.00143442 -0.000521554 xyz
    dof rx ry rz
  end
  begin
    id 3
    name LeftLeg
    direction -1.82929e-007 -1 -5.23717e-011
    length 14.9995
    axis 3.68178 -0.00654042 -0.000282425 xyz
    dof rx ry rz
  end
  begin
    id 4
    name LeftFoot
    direction 8.31532e-007 -4.54534e-011 1
    length 6.74421
    axis 1.87234e-006 4.66016e-005 -5.96866e-006 xyz
    dof rx ry rz
  end
  begin
    id 5
    name LeftToes
    direction 0.00818058 -0.00485161 0.999955
    length 3.85048
    axis 1.06247e-005 4.65869e-005 -5.96999e-006 xyz
    dof rx ry rz
  end
  begin
    id 6
    name SpineDummy
    direction -5.8607e-008 0.943407 -0.331637
    length 5.93572
    axis 0 0 0 xyz
  end
  begin
    id 7
    name Spine
    direction -1.04988e-007 0.999988 0.00495137
    length 10.1015
    axis -0.001389 0.000121417 6.61666e-006 xyz
    dof rx ry rz
  end
  begin
    id 8
    name Spine1
    direction 0 0 0
    length 0
    axis -0.001389 0.00012144 6.56766e-006 xyz
    dof rx ry rz
  end
  begin
    id 9
    name RightShoulderDummy
    direction -0.98348 0.17941 -0.0240696
    length 3.59882
    axis -0.001389 0.00012144 6.56766e-006 xyz
  end
  begin
    id 10
    name RightShoulder
    direction -0.978693 0.204882 0.0135597
    length 2.70001
    axis 0.215806 0.000203631 -0.00679732 xyz
    dof rx ry rz
  end
  begin
    id 11
    name RightArm
    direction -1 3.85509e-006 8.31394e-007
    length 10.2459
    axis -23.2009 -0.134239 -0.964098 xyz
    dof rx ry rz
  end
  begin
    id 12
    name RightForeArm
    direction -1 3.85569e-006 8.3129e-007
    length 8.16799
    axis -9.92322 0.0658061 0.17887 xyz
    dof rx ry rz
  end
  begin
    id 13
    name RightHand
    direction -0.992843 -0.0414604 0.112003
    length 5.28593
    axis -0.00960638 0.00330669 -0.185225 xyz
    dof rx ry rz
  end
  begin
    id 14
    name LeftShoulder1Dummy
    direction 0.983523 0.179172 -0.0240748
    length 3.59866
    axis -0.001389 0.00012144 6.56766e-006 xyz
  end
  begin
    id 15
    name LeftShoulder1
    direction 0.978627 0.205195 0.0135605
    length 2.70019
    axis -0.001389 0.00012144 6.57583e-006 xyz
    dof rx ry rz
  end
  begin
    id 16
    name LeftArm
    direction 1 3.51895e-006 -8.60188e-007
    length 10.2459
    axis -23.1894 0.134785 0.967513 xyz
    dof rx ry rz
  end
  begin
    id 17
    name LeftForeArm
    direction 1 3.51921e-006 -7.32029e-007
    length 8.16799
    axis -9.91835 -0.0656957 -0.177789 xyz
    dof rx ry rz
  end
  begin
    id 18
    name LeftHand
    direction 0.992938 -0.0411636 0.11126
    length 5.32135
    axis -0.00960237 -0.00340661 0.185177 xyz
    dof rx ry rz
  end
  begin
    id 19
    name HEadDummy
    direction 1.01974e-006 0.999861 -0.016675
    length 2.99946
    axis -0.001389 0.00012144 6.56766e-006 xyz
  end
  begin
    id 20
    name HEad
    direction -0.0222689 0.980941 0.193023
    length 5.12695
    axis -0.001389 0.00012144 6.56766e-006 xyz
    dof rx ry rz
  end
  begin
    id 21
    name RightUpLegDummy
    direction -1 2.30186e-007 8.31532e-007
    length 2.93387
    axis 0 0 0 xyz
  end
  begin
    id 22
    name RightUpLeg
    direction -1.82966e-007 -1 1.56832e-007
    length 17.3336
    axis -3.4909 -0.000906625 0.00028951 xyz
    dof rx ry rz
  end
  begin
    id 23
    name RightLeg
    direction -1.82786e-007 -1 -1.80317e-007
    length 14.9995
    axis 3.68513 0.0193739 -0.131021 xyz
    dof rx ry rz
  end
  begin
    id 24
    name RightFoot
    direction 8.31721e-007 -4.63324e-011 1
    length 6.74421
    axis 4.81691e-005 -0.120479 -0.188785 xyz
    dof rx ry rz
  end
  begin
    id 25
    name RightToes
    direction 0.00124746 -0.014064 0.9999
    length 3.85082
    axis 0.000481921 0.542163 -0.142575 xyz
    dof rx ry rz
  end
:hierarchy
  begin
    root LeftUpLegDummy SpineDummy RightUpLegDummy
    LeftUpLegDummy LeftUpLeg
    LeftUpLeg LeftLeg
    LeftLeg LeftFoot
    LeftFoot LeftToes
    SpineDummy Spine
    Spine Spine1
    Spine1 RightShoulderDummy LeftShoulder1Dummy HEadDummy
    RightShoulderDummy RightShoulder
    RightShoulder RightArm
    RightArm RightForeArm
    RightForeArm RightHand
    LeftShoulder1Dummy LeftShoulder1
    LeftShoulder1 LeftArm
    LeftArm LeftForeArm
    LeftForeArm LeftHand
    HEadDummy HEad
    RightUpLegDummy RightUpLeg
    RightUpLeg RightLeg
    RightLeg RightFoot
    RightFoot RightToes
  end

:SAMPLES-PER-SECOND 30
:FULLY-SPECIFIED
:DEGREES
113
root  7.07571 34.2915 6.08058 3.59152 -11.648 -0.490144
LeftUpLeg  -7.21389 11.9486 1.63448
LeftLeg  11.1133 9.554 1.23895
LeftFoot  1.19006 -0.00239753 0.230843
LeftToes  -15.4463 1.61378e-006 8.80029e-008
Spine  4.10839 -1.4861 -1.68907
Spine1  8.13407 -2.8914 -3.27972
RightShoulder  -0.00839661 4.39461 6.19867
RightArm  -60.8886 -32.6793 78.484
RightForeArm  22.3975 24.7828 4.66525
RightHand  0.196648 -7.80772 -2.50897
LeftShoulder1  0.0344926 0.7953 -9.69076
LeftArm  -20.3636 13.4551 -61.4028
LeftForeArm  32.0678 -15.8205 -2.85592
LeftHand  0.136169 2.9828 4.56387
HEad  -3.44541 4.42786 -3.9441
RightUpLeg  -29.0641 -20.6575 -1.53557
RightLeg  50.4644 7.83249 8.20886
RightFoot  6.87286 -0.0665942 1.3922
RightToes  -35.0999 -0.180569 -0.285803
114
root  7.02023 34.2498 6.58226 4.09796 -11.9311 -0.453879
LeftUpLeg  -6.86528 11.7142 1.56907
LeftLeg  11.3054 10.1198 1.34595
LeftFoot  0.237407 -0.000144669 0.0698209
LeftToes  -15.5406 1.61378e-006 8.80029e-008
Spine  3.98397 -1.94524 -1.49334
Spine1  7.87305 -3.9354 -2.76733
RightShoulder  -0.00630861 4.09914 6.15097
RightArm  -57.8307 -29.4553 79.8458
RightForeArm  24.6559 24.6809 4.64304
RightHand  0.116165 -7.07889 -1.50649
LeftShoulder1  0.0486032 0.402459 -9.6031
LeftArm  -21.0124 12.0294 -60.4514
LeftForeArm  32.4025 -15.6567 -2.82457
LeftHand  0.13961 2.92219 4.82601
HEad  -4.24162 4.49215 -3.85281
RightUpLeg  -29.9898 -20.094 -1.13074
RightLeg  41.5404 10.9546 8.38233
RightFoot  7.08157 -0.0860327 1.73934
RightToes  -36.8023 -0.193456 -0.296356
115
root  6.93528 34.208 7.07717 4.60312 -11.9248 -0.356763
LeftUpLeg  -6.65579 11.3716 1.48042
LeftLeg  11.6584 10.5272 1.46518
LeftFoot  -0.669505 -0.000593174 -0.101534
LeftToes  -15.4846 1.61378e-006 8.80029e-008
Spine  3.91716 -2.25022 -1.34435
Spine1  7.71104 -4.68403 -2.32448
RightShoulder  -0.00433938 3.64623 5.96346
RightArm  -53.8758 -27.0412 81.049
RightForeArm  27.3066 25.7791 4.87988
RightHand  0.0145286 -6.10421 0.0974281
LeftShoulder1  0.0640379 0.013402 -9.37022
LeftArm  -21.5849 9.93439 -59.6116
LeftForeArm  32.8966 -15.1306 -2.7246
LeftHand  0.143294 2.88908 5.12979
HEad  -4.86275 4.11712 -4.01083
RightUpLeg  -30.1845 -19.3327 -1.04164
RightLeg  30.8916 11.9871 6.08918
RightFoot  7.12426 -0.0817343 1.70302
RightToes  -38.3087 -0.205115 -0.30537
116
root  6.80225 34.1545 7.58662 4.97457 -11.6947 -0.0918044
LeftUpLeg  -6.38643 11.2783 1.35614
LeftLeg  12.1389 10.4521 1.54371
LeftFoot  -1.60366 -0.00390092 -0.278734
LeftToes  -15.6824 1.61378e-006 8.80029e-008
Spine  3.91674 -2.44745 -1.26038
Spine1  7.67382 -5.22181 -1.9967
RightShoulder  -0.00248531 3.17749 5.74706
RightArm  -49.2917 -25.5163 81.7768
RightForeArm  28.6724 27.9358 5.35974
RightHand  -0.0171336 -5.09179 0.754368
LeftShoulder1  0.0784617 -0.220086 -9.15448
LeftArm  -22.1818 7.49764 -58.8534
LeftForeArm  33.3823 -14.7126 -2.64544
LeftHand  0.143105 2.91241 5.24243
HEad  -5.24053 3.58826 -4.44541
RightUpLeg  -29.741 -18.0974 -1.51501
RightLeg  19.7098 9.66536 2.76169
RightFoot  6.84962 -0.050831 1.22678
RightToes  -37.1039 -0.195771 -0.301093
117
root  6.62551 34.0887 8.14723 5.36567 -11.1006 0.281068
LeftUpLeg  -6.01144 11.3566 1.24005
LeftLeg  12.4187 9.85983 1.50604
LeftFoot  -2.45202 -0.00889427 -0.415605
LeftToes  -16.2143 1.61378e-006 8.80029e-008
Spine  3.92941 -2.56508 -1.22196
Spine1  7.66253 -5.59684 -1.76118
RightShoulder  -0.00083326 2.80017 5.60961
RightArm  -44.1197 -24.9552 81.9499
RightForeArm  28.0618 30.8648 6.04555
RightHand  0.0173529 -4.93798 -0.0323934
LeftShoulder1  0.0936215 -0.56727 -9.05897
LeftArm  -22.8546 5.08868 -58.0659
LeftForeArm  33.8306 -14.6339 -2.6303
LeftHand  0.140262 2.83895 5.27292
HEad  -5.44737 2.90755 -4.90924
RightUpLeg  -29.2246 -17.5881 -2.05086
RightLeg  9.59316 4.2943 0.445724
RightFoot  6.4732 -0.00800638 0.519074
RightToes  -36.6516 -0.192302 -0.295437
118
root  6.39914 34.0004 8.78881 5.72646 -9.90545 0.842522
LeftUpLeg  -5.537 11.3394 1.09888
LeftLeg  12.6718 8.77778 1.38154
LeftFoot  -3.28974 -0.0144886 -0.504547
LeftToes  -17.2386 1.61378e-006 8.80029e-008
Spine  3.9566 -2.69586 -1.23638
Spine1  7.69033 -5.96364 -1.65325
RightShoulder  0.000488615 2.58794 5.51391
RightArm  -39.3943 -25.073 81.6237
RightForeArm  27.1967 34.0364 6.83905
RightHand  0.0720528 -4.73126 -1.37208
LeftShoulder1  0.106166 -0.956823 -9.07008
LeftArm  -23.3967 2.74315 -57.3583
LeftForeArm  33.7134 -14.901 -2.68066
LeftHand  0.132023 2.72023 5.173
HEad  -5.40293 2.14179 -5.06423
RightUpLeg  -30.6405 -20.9934 -1.14346
RightLeg  4.67982 -0.278976 -0.00370187
RightFoot  5.17782 0.0163995 0.0148532
RightToes  -37.2283 -0.196729 -0.298935
119
root  6.14208 33.8549 9.45277 5.8617 -8.4324 2.04393
LeftUpLeg  -5.1518 10.7807 0.435747
LeftLeg  13.4831 7.93437 1.3645
LeftFoot  -4.43376 -0.0239518 -0.618734
LeftToes  -17.869 1.61378e-006 8.80029e-008
Spine  3.99529 -2.88169 -1.45997
Spine1  7.75936 -6.42592 -1.97229
RightShoulder  0.00109078 2.38624 5.48477
RightArm  -35.6177 -25.1488 81.0309
RightForeArm  26.8387 36.6075 7.52847
RightHand  0.117666 -4.17308 -2.85429
LeftShoulder1  0.117078 -1.08026 -9.3855
LeftArm  -23.801 0.405425 -56.6157
LeftForeArm  33.7251 -15.3131 -2.75846
LeftHand  0.12029 2.42401 5.29591
HEad  -4.93822 1.47267 -5.14425
RightUpLeg  -32.4253 -23.7263 -1.40345
RightLeg  4.85102 -3.39707 -0.0676984
RightFoot  3.0788 0.0137184 -0.132887
RightToes  -36.3447 -0.189961 -0.293557
120
root  5.82949 33.6938 10.1452 5.76057 -7.17124 2.85776
LeftUpLeg  -4.47251 10.0791 0.306034
LeftLeg  14.5641 7.48405 1.43273
LeftFoot  -5.6844 -0.0373193 -0.751698
LeftToes  -18.8908 1.61378e-006 8.80029e-008
Spine  4.18694 -2.8706 -1.54604
Spine1  8.12518 -6.49587 -2.0799
RightShoulder  0.00301007 2.50824 5.51765
RightArm  -32.7143 -24.6894 79.9204
RightForeArm  26.0401 37.7096 7.83877
RightHand  0.145659 -3.94091 -3.85539
LeftShoulder1  0.12975 -1.4318 -9.76533
LeftArm  -24.2076 -1.70369 -56.2265
LeftForeArm  33.6182 -16.0232 -2.89337
LeftHand  0.109174 2.15912 5.40125
HEad  -4.68588 0.806731 -5.28536
RightUpLeg  -30.7784 -19.9795 -4.90457
RightLeg  4.6899 -8.69296 -0.149227
RightFoot  5.84702 0.0627558 -0.85114
RightToes  -31.5975 -0.155075 -0.262914
121
root  5.41441 33.5308 10.9453 5.46613 -5.49279 3.32053
LeftUpLeg  -3.39078 9.19689 0.815706
LeftLeg  15.6481 6.82156 1.44025
LeftFoot  -6.84625 -0.0496926 -0.830753
LeftToes  -20.266 1.61378e-006 8.80029e-008
Spine  4.41067 -2.87465 -1.43038
Spine1  8.55045 -6.52951 -1.86579
RightShoulder  0.00543022 2.99145 5.64003
RightArm  -30.8741 -24.1405 78.4042
RightForeArm  25.4503 37.4298 7.7593
RightHand  0.149756 -3.919 -3.99833
LeftShoulder1  0.135296 -1.85374 -9.82165
LeftArm  -24.3639 -3.02151 -56.6956
LeftForeArm  33.1722 -16.9784 -3.07669
LeftHand  0.102368 1.94371 5.63888
HEad  -4.16265 0.0426705 -5.61106
RightUpLeg  -29.4792 -19.4294 -6.39446
RightLeg  6.70862 -7.19659 -0.376711
RightFoot  6.07788 0.0591112 -0.73576
RightToes  -32.9626 -0.164845 -0.27202
122
root  4.88694 33.3593 11.8431 5.03292 -3.34176 3.62554
LeftUpLeg  -2.14395 7.88945 1.74449
LeftLeg  16.8904 6.20288 1.45073
LeftFoot  -7.83923 -0.059752 -0.872066
LeftToes  -21.9823 1.61378e-006 8.80029e-008
Spine  4.45886 -2.90354 -1.19546
Spine1  8.63088 -6.56177 -1.49251
RightShoulder  0.00851641 2.97468 5.79586
RightArm  -29.8762 -23.6336 76.9249
RightForeArm  25.4766 35.6868 7.27674
RightHand  0.137489 -3.96493 -3.59448
LeftShoulder1  0.127421 -1.70624 -9.33234
LeftArm  -23.9765 -3.55431 -58.5329
LeftForeArm  32.6948 -17.8364 -3.24308
LeftHand  0.101176 1.76205 6.17775
HEad  -2.90159 -0.964938 -5.61077
RightUpLeg  -26.72 -18.5679 -7.74613
RightLeg  7.96347 -3.44713 -0.256064
RightFoot  4.94679 0.0278638 -0.267466
RightToes  -30.6629 -0.148512 -0.256547
123
root  4.23902 33.2252 12.7815 4.71467 -1.31094 2.85733
LeftUpLeg  -1.12946 6.40026 3.9056
LeftLeg  18.4606 5.93961 1.5616
LeftFoot  -8.56425 -0.0694712 -0.927797
LeftToes  -24.3016 1.61378e-006 8.80029e-008
Spine  4.25121 -2.73085 -0.647651
Spine1  8.20314 -6.14132 -0.588065
RightShoulder  0.0123345 2.92191 6.28496
RightArm  -31.0826 -23.2482 75.5878
RightForeArm  26.5171 31.9765 6.3176
RightHand  0.131174 -3.95832 -3.41884
LeftShoulder1  0.104895 -1.32779 -9.07648
LeftArm  -22.3225 -3.03621 -60.508
LeftForeArm  31.6506 -19.1202 -3.49541
LeftHand  0.100442 1.76732 6.11107
HEad  -2.09542 -2.15668 -4.91579
RightUpLeg  -22.9574 -16.177 -7.79283
RightLeg  5.50327 -2.0534 -0.0638325
RightFoot  9.65747 0.0613274 -0.348378
RightToes  -35.8662 -0.186331 -0.2906
